<svg xmlns="http://www.w3.org/2000/svg" width="1200" height="630" viewBox="0 0 1200 630">
  <rect width="1200" height="630" fill="#10151b"/>
  <circle cx="1040" cy="80" r="330" fill="#8cc8e8" opacity=".05"/>
  <text x="88" y="105" fill="#8cc8e8" font-family="monospace" font-size="19" letter-spacing="4">REMOTE AGENT COURIER</text>
  <text x="82" y="238" fill="#f4f7f8" font-family="Georgia, serif" font-size="82">Your agent saw it.</text>
  <text x="82" y="333" fill="#8cc8e8" font-family="Georgia, serif" font-size="82" font-style="italic">Now you can too.</text>
  <text x="88" y="407" fill="#88979e" font-family="sans-serif" font-size="24">Artifacts from remote machines, delivered.</text>
  <rect x="86" y="488" width="438" height="58" rx="10" fill="#ffffff" fill-opacity=".04" stroke="#ffffff" stroke-opacity=".1"/>
  <text x="108" y="525" fill="#8cc8e8" font-family="monospace" font-size="18">$</text>
  <text x="136" y="525" fill="#c8d4d9" font-family="monospace" font-size="18">npx @leomosley/pigeon init</text>
  <path d="M735 465 C 820 135, 1010 450, 1110 130" fill="none" stroke="#8cc8e8" stroke-opacity=".55" stroke-width="2" stroke-dasharray="8 12"/>
  <circle cx="735" cy="465" r="8" fill="#f17a64"/>
  <circle cx="1110" cy="130" r="8" fill="#8cc8e8"/>
  <path d="M905 275c35-8 54-34 61-70 18 23 23 44 21 62l33-14c-9 26-31 44-61 50-21 3-39-7-54-28Z" fill="#8cc8e8"/>
  <circle cx="969" cy="230" r="5" fill="#10151b"/>
  <path d="m980 237 24 6-21 9Z" fill="#f17a64"/>
</svg>
